<svg width="348" height="244" viewBox="0 0 348 244" fill="none" xmlns="http://www.w3.org/2000/svg">
<path d="M53.6507 191.824C53.6507 208.854 41.5168 219.206 26.8253 219.206C12.1339 219.206 0 208.854 0 191.824C0 174.794 12.0227 164.332 26.8253 164.332C41.628 164.332 53.6507 174.683 53.6507 191.824ZM45.9713 191.824C45.9713 175.795 38.0696 166 26.8253 166C15.581 166 7.67931 175.795 7.67931 191.824C7.67931 207.853 15.581 217.538 26.8253 217.538C38.0696 217.538 45.9713 207.742 45.9713 191.824Z" fill="#000712"/>
<path d="M115.873 191.824C115.873 208.409 105.3 219.206 91.2753 219.206C83.2624 219.206 76.5839 214.977 72.7965 207.742L67.0076 218.094H65.562V148.525C65.562 144.185 64.45 141.958 60.3291 141.513V140.179L71.9037 136.614H72.9045V175.795C76.6885 168.449 83.2559 164.332 91.2688 164.332C105.293 164.332 115.867 175.128 115.867 191.824H115.873ZM108.191 191.824C108.191 176.351 101.957 166 91.272 166C80.5871 166 72.9077 175.684 72.9077 191.824C72.9077 207.965 80.5871 217.538 91.272 217.538C101.957 217.538 108.191 207.186 108.191 191.824Z" fill="#000712"/>
<path d="M140.36 218.09H122.552V216.756C126.67 216.422 127.785 214.084 127.785 209.744V148.525C127.785 144.185 126.673 141.958 122.552 141.513V140.179L134.127 136.614H135.127V209.744C135.127 214.084 136.239 216.422 140.36 216.756V218.09Z" fill="#000712"/>
<path d="M165.959 218.09H148.151V216.756C152.269 216.422 153.384 214.084 153.384 209.744V176.24C153.384 171.9 152.272 169.561 148.151 169.228V167.893L159.726 164.332H160.615V209.747C160.615 214.087 161.727 216.426 165.959 216.759V218.094V218.09ZM150.597 149.748C150.597 146.298 153.158 144.404 156.053 144.404C158.947 144.404 161.619 146.298 161.619 149.748C161.619 153.199 159.058 155.204 156.053 155.204C153.047 155.204 150.597 153.202 150.597 149.748Z" fill="#000712"/>
<path d="M228.846 242.024V243.359H211.038V242.024C215.155 241.58 216.271 239.352 216.271 235.012V207.742C212.486 215.088 205.919 219.206 197.903 219.206C183.879 219.206 173.194 208.409 173.194 191.713C173.194 175.017 183.879 164.332 197.903 164.332C205.916 164.332 212.483 168.561 216.271 175.795L222.059 165.555H223.505V235.012C223.505 239.352 224.617 241.58 228.849 242.024H228.846ZM216.267 191.713C216.267 175.684 208.588 166 197.9 166C187.211 166 180.87 176.351 180.87 191.713C180.87 207.075 187.215 217.538 197.9 217.538C208.585 217.538 216.267 207.853 216.267 191.713Z" fill="#000712"/>
<path d="M290.732 216.756V218.09H278.153V209.407C274.814 215.307 269.47 219.202 261.679 219.202C249.768 219.202 240.309 212.746 240.309 198.055V176.237C240.309 171.897 239.197 169.558 234.965 169.225V167.89L246.54 164.329H247.54V197.387C247.54 207.85 251.436 217.312 263.236 217.201C271.36 217.201 278.15 209.299 278.15 201.839V176.237C278.15 171.897 277.038 169.558 272.917 169.225V167.89L284.492 164.329H285.381V209.744C285.381 214.195 286.493 216.422 290.725 216.756H290.732Z" fill="#000712"/>
<path d="M347.388 215.644C346.61 217.089 344.383 219.206 341.155 219.206C336.258 219.206 333.364 216.867 333.364 211.86V206.516C331.47 213.194 325.685 219.206 315.667 219.206C305.871 219.317 298.859 213.417 298.637 205.292C298.303 196.053 305.538 189.597 315.778 188.596C326.685 187.595 333.364 187.262 333.364 187.262V181.473C333.364 169.228 329.691 165.889 321.119 165.889C315.552 165.889 310.879 169.005 310.99 174.238C310.99 178.69 307.984 180.027 305.423 179.027C302.64 177.803 302.64 174.575 303.755 172.348C306.539 167.004 313.328 164.669 320.674 164.335C330.581 164.001 340.71 168.008 340.71 182.811V211.974C340.71 216.426 344.494 217.093 346.832 214.869L347.388 215.647V215.644ZM333.361 197.721V188.815C333.361 188.815 327.683 189.038 318.892 190.15C310.208 191.262 305.09 196.939 305.423 204.73C305.646 212.076 310.99 216.53 318.669 216.305C328.131 216.082 333.361 207.288 333.361 197.718V197.721Z" fill="#000712"/>
<path d="M151.684 54.0052C152.451 53.8339 170.065 49.6436 173.227 36.6216C174.077 33.1165 173.625 30.0249 173.466 29.0014C172.36 21.9159 167.506 15.3276 160.701 12.6163C157.133 11.1958 153.054 10.7823 148.761 11.7348C140.875 13.4894 136.579 18.9289 134.929 26.9376C132.227 40.0515 135.875 54.3436 142.048 65.8157C152.882 85.9482 180.363 106.219 201.776 98.4438C214.591 93.794 222.209 81.1814 223.666 78.7124C224.776 76.8282 229.529 68.4685 230.421 56.4366C230.924 49.6311 230.019 43.9703 229.11 40.1393C230.128 43.8366 231.25 49.5183 230.873 56.4492C230.723 59.1898 229.99 68.5145 224.319 78.8084C218.904 88.6345 211.617 94.5794 206.935 97.7253C202.89 100.445 193.187 107.033 179.584 107C172.867 106.983 151.919 106.937 137.299 91.0451C127.935 80.8639 123.416 69.5088 122.742 63.8145C121.435 52.7853 120.857 30.8563 137.249 15.7705C149.745 4.26915 171.309 10.8575 174.215 28.2703C174.764 31.5665 174.207 32.9201 175.086 36.5589C177.327 45.8628 187.872 51.0599 196.566 54.0094C194.397 54.1263 186.498 54.824 180.782 61.1241C173.742 68.878 173.554 81.2023 178.6 87.987C180.769 90.903 183.923 92.8248 184.371 93.0921C186.239 94.2076 189.539 95.7826 193.844 96.0291C195.05 96.096 201.939 96.38 207.43 91.9307C212.832 87.5525 213.933 81.0435 214.52 77.2543C216.965 61.3747 209.57 40.2521 193.656 24.9448C186.193 17.7674 171.866 3.98924 153.69 6.82593C138.12 9.2532 128.793 22.4716 126.444 25.8054C124.928 27.9528 118.96 36.7929 117.708 49.8776C116.992 57.3766 118.081 63.5806 119.111 67.5912C118.504 65.6318 117.737 62.72 117.314 59.1313C114.467 34.8293 131.88 16.8818 132.839 15.9251C135.209 13.5563 140.913 8.32156 149.804 4.56159C163.565 -1.258 182.872 -2.64919 200.126 7.23953C202.727 8.73098 223.314 20.9885 227.18 45.587C229.039 57.4142 224.365 76.1598 212.43 89.4868C201.047 102.2 176.004 98.5316 173.868 78.3155C173.725 76.9577 173.759 75.5623 173.596 74.2046C173.436 72.9011 172.456 66.8267 168.197 61.7633C162.125 54.5358 153.28 54.0678 151.68 54.0094L151.684 54.0052Z" fill="#000712"/>
</svg>
